<?xml version="1.0" standalone="no"?>
<!DOCTYPE svg PUBLIC "-//W3C//DTD SVG 20010904//EN"
        "http://www.w3.org/TR/2001/REC-SVG-20010904/DTD/svg10.dtd">
<svg version="1.0" xmlns="http://www.w3.org/2000/svg"
     width="1024.000000pt" height="1024.000000pt" viewBox="0 0 1024.000000 1024.000000"
     preserveAspectRatio="xMidYMid meet">

    <g transform="translate(0.000000,1024.000000) scale(0.100000,-0.100000)"
       fill="#000000" stroke="none">
        <path d="M1940 8091 c0 -10 31 -31 45 -31 11 0 -5 20 -26 30 -12 7 -19 7 -19
1z"/>
        <path d="M1920 8047 c0 -2 26 -26 57 -53 31 -27 54 -44 50 -37 -9 14 -107 97
-107 90z"/>
        <path d="M2060 7925 c13 -14 26 -25 28 -25 3 0 -5 11 -18 25 -13 14 -26 25
-28 25 -3 0 5 -11 18 -25z"/>
        <path d="M8555 6494 c-42 -49 -172 -206 -289 -348 -592 -727 -786 -957 -889
-1053 l-55 -52 166 -153 c92 -84 232 -214 312 -289 80 -74 175 -163 211 -197
l67 -62 101 100 c224 223 769 867 772 913 14 188 -173 943 -290 1175 l-28 55
-78 -89z"/>
        <path d="M7187 5388 c-52 -71 -47 -80 7 -13 21 25 33 45 27 45 -5 0 -21 -15
-34 -32z"/>
        <path d="M1265 5210 c-3 -6 1 -7 9 -4 18 7 21 14 7 14 -6 0 -13 -4 -16 -10z"/>
        <path d="M1196 5046 c-14 -56 18 -352 59 -543 60 -277 144 -566 222 -763 57
-145 142 -312 156 -307 6 2 20 15 31 30 l20 28 -37 72 c-128 252 -292 836
-337 1197 -31 252 -25 230 -68 273 l-39 39 -7 -26z m75 -151 c-6 -35 -9 -41
-10 -20 -1 30 9 78 15 73 2 -2 -1 -26 -5 -53z"/>
        <path d="M2921 5003 c-8 -3 -27 -21 -43 -39 -17 -19 -34 -31 -39 -28 -5 3 -8
2 -7 -3 2 -4 -21 -31 -50 -60 -28 -28 -52 -55 -52 -60 0 -4 -19 -19 -41 -33
-77 -47 -274 -263 -589 -645 -78 -94 -105 -128 -115 -139 -58 -67 -135 -167
-135 -175 0 -6 -4 -11 -10 -11 -5 0 -10 -7 -10 -15 0 -9 -7 -18 -15 -21 -8 -4
-12 -10 -10 -15 3 -4 -3 -14 -15 -21 -11 -7 -20 -19 -20 -26 0 -7 -4 -10 -10
-7 -5 3 -10 2 -10 -4 0 -6 -8 -18 -19 -28 -21 -20 -40 -70 -22 -59 7 5 9 1 5
-8 -4 -11 0 -16 14 -16 13 0 22 9 26 24 4 18 11 23 26 19 15 -4 22 2 30 22 6
15 13 25 16 22 4 -3 24 15 46 41 21 26 52 61 67 77 15 17 92 104 171 195 78
91 154 178 169 194 14 17 25 33 24 38 -2 4 0 7 5 5 4 -1 63 61 132 138 68 77
146 162 172 190 32 34 43 52 35 57 -9 6 -9 8 1 8 18 0 72 51 66 62 -3 5 0 7 7
6 7 -2 13 6 14 17 0 11 6 19 13 17 8 -1 11 2 7 8 -3 5 -2 10 4 10 17 0 61 46
61 63 0 10 6 14 14 11 7 -3 25 9 39 25 14 17 30 31 36 31 5 0 22 -15 38 -34
25 -30 178 -172 364 -338 35 -32 73 -58 84 -58 15 0 17 -2 6 -9 -18 -11 2 -23
24 -15 13 5 16 2 13 -12 -2 -11 5 -26 17 -36 17 -14 23 -14 47 -2 36 18 36 18
30 -13 -4 -23 -2 -26 9 -15 19 18 29 15 29 -8 0 -14 7 -20 21 -20 11 0 17 -5
14 -10 -3 -6 1 -13 10 -16 9 -4 14 -12 11 -19 -8 -22 5 -25 31 -8 20 13 26 14
36 3 7 -7 7 -10 2 -7 -6 3 -12 -3 -12 -14 -2 -17 0 -18 13 -4 21 20 31 19 37
-5 6 -25 23 -26 36 -2 11 20 7 24 -165 179 -157 140 -240 203 -255 190 -11
-10 -11 -9 0 5 11 15 7 21 -31 48 -24 17 -42 33 -41 35 2 4 -125 128 -164 161
-13 10 -23 24 -23 31 0 33 -76 19 -109 -21 -14 -17 -41 -11 -41 9 0 7 -6 16
-12 19 -7 3 -4 4 8 1 15 -4 24 2 35 22 8 16 17 30 21 33 6 5 -48 72 -55 69 -1
0 -8 -3 -16 -6z m44 -92 c-3 -6 -11 -11 -16 -11 -5 0 -4 6 3 14 14 16 24 13
13 -3z m-215 -131 c-12 -8 -10 -10 8 -10 13 0 21 -4 17 -9 -9 -15 -42 -8 -42
9 0 16 18 32 26 24 3 -3 -1 -9 -9 -14z m737 -386 c-3 -3 -12 -4 -19 -1 -8 3
-5 6 6 6 11 1 17 -2 13 -5z m3 -18 c0 -3 -4 -8 -10 -11 -5 -3 -10 -1 -10 4 0
6 5 11 10 11 6 0 10 -2 10 -4z"/>
        <path d="M3500 4336 c0 -8 4 -17 9 -21 6 -3 9 4 8 15 -1 23 -17 28 -17 6z"/>
        <path d="M3786 4222 c-3 -6 -1 -14 5 -17 15 -10 25 3 12 16 -7 7 -13 7 -17 1z"/>
        <path d="M3827 4185 c3 -8 9 -12 14 -9 12 7 11 11 -5 17 -10 4 -13 1 -9 -8z"/>
        <path d="M2173 2052 c-18 -9 -32 -21 -33 -27 0 -5 -4 -10 -9 -10 -6 0 -15 -5
-22 -12 -30 -30 5 -139 41 -130 11 3 18 0 17 -7 -1 -6 7 -11 18 -11 13 0 21 8
23 24 3 18 0 22 -12 18 -22 -9 -21 24 3 71 10 20 22 48 26 62 7 21 6 23 -7 13
-18 -16 -32 -5 -17 14 14 17 11 16 -28 -5z"/>
        <path d="M3728 1268 c-13 -13 -25 -22 -28 -21 -3 1 -28 -19 -55 -43 -28 -25
-97 -76 -153 -114 l-104 -68 57 -12 c104 -22 124 -12 259 121 115 112 120 119
103 136 -13 13 -19 15 -29 5 -17 -17 -31 -15 -24 3 8 21 0 19 -26 -7z"/>
        <path d="M3127 1139 c7 -7 15 -10 18 -7 3 3 -2 9 -12 12 -14 6 -15 5 -6 -5z"/>
        <path d="M3172 1118 c7 -4 30 -8 50 -8 27 0 40 -6 48 -20 9 -17 58 -50 74 -50
3 0 -5 10 -17 23 -12 13 -26 30 -32 39 -7 11 -29 17 -73 20 -34 2 -57 1 -50
-4z"/>
    </g>
</svg>
